<mxfile host="65bd71144e">
    <diagram id="B46cBotvIP3PlwZSdfoR" name="Page-1">
        <mxGraphModel dx="723" dy="825" grid="1" gridSize="10" guides="1" tooltips="1" connect="0" arrows="1" fold="1" page="1" pageScale="1" pageWidth="850" pageHeight="1100" math="0" shadow="0">
            <root>
                <mxCell id="0"/>
                <mxCell id="1" parent="0"/>
                <mxCell id="2" value="対戦（開始）" style="html=1;" parent="1" vertex="1">
                    <mxGeometry x="70" y="300" width="160" height="60" as="geometry"/>
                </mxCell>
                <mxCell id="3" value="盤面" style="html=1;" parent="1" vertex="1">
                    <mxGeometry x="530" y="410" width="160" height="60" as="geometry"/>
                </mxCell>
                <mxCell id="4" value="プレイヤー" style="html=1;" parent="1" vertex="1">
                    <mxGeometry x="70" y="170" width="160" height="60" as="geometry"/>
                </mxCell>
                <mxCell id="5" value="石" style="html=1;" parent="1" vertex="1">
                    <mxGeometry x="530" y="770" width="160" height="60" as="geometry"/>
                </mxCell>
                <mxCell id="6" value="石の種類&lt;br&gt;・空&lt;br&gt;・白&lt;br&gt;・黒" style="shape=note;whiteSpace=wrap;html=1;backgroundOutline=1;darkOpacity=0.05;fillColor=#ffe6cc;strokeColor=#d79b00;" parent="1" vertex="1">
                    <mxGeometry x="670" y="870" width="115" height="120" as="geometry"/>
                </mxCell>
                <mxCell id="7" value="" style="endArrow=none;dashed=1;html=1;entryX=0.374;entryY=0.017;entryDx=0;entryDy=0;entryPerimeter=0;" parent="1" source="5" target="6" edge="1">
                    <mxGeometry width="50" height="50" relative="1" as="geometry">
                        <mxPoint x="240" y="450" as="sourcePoint"/>
                        <mxPoint x="290" y="400" as="targetPoint"/>
                    </mxGeometry>
                </mxCell>
                <mxCell id="8" value="" style="endArrow=none;html=1;edgeStyle=orthogonalEdgeStyle;exitX=0.49;exitY=1.028;exitDx=0;exitDy=0;exitPerimeter=0;entryX=0.5;entryY=0;entryDx=0;entryDy=0;entryPerimeter=0;" parent="1" source="4" target="2" edge="1">
                    <mxGeometry x="0.3102" relative="1" as="geometry">
                        <mxPoint x="140" y="270" as="sourcePoint"/>
                        <mxPoint x="300" y="270" as="targetPoint"/>
                        <Array as="points">
                            <mxPoint x="150" y="232"/>
                        </Array>
                        <mxPoint as="offset"/>
                    </mxGeometry>
                </mxCell>
                <mxCell id="9" value="１" style="edgeLabel;resizable=0;html=1;align=left;verticalAlign=bottom;" parent="8" connectable="0" vertex="1">
                    <mxGeometry x="-1" relative="1" as="geometry"/>
                </mxCell>
                <mxCell id="10" value="＊" style="edgeLabel;resizable=0;html=1;align=right;verticalAlign=bottom;" parent="8" connectable="0" vertex="1">
                    <mxGeometry x="1" relative="1" as="geometry"/>
                </mxCell>
                <mxCell id="11" value="対戦結果" style="html=1;" parent="1" vertex="1">
                    <mxGeometry x="70" y="420" width="160" height="60" as="geometry"/>
                </mxCell>
                <mxCell id="13" value="" style="endArrow=none;html=1;edgeStyle=orthogonalEdgeStyle;entryX=0.5;entryY=0;entryDx=0;entryDy=0;entryPerimeter=0;" parent="1" source="2" target="11" edge="1">
                    <mxGeometry x="-0.0476" relative="1" as="geometry">
                        <mxPoint x="150" y="400" as="sourcePoint"/>
                        <mxPoint x="159" y="430" as="targetPoint"/>
                        <mxPoint as="offset"/>
                    </mxGeometry>
                </mxCell>
                <mxCell id="14" value="１" style="edgeLabel;resizable=0;html=1;align=left;verticalAlign=bottom;" parent="13" connectable="0" vertex="1">
                    <mxGeometry x="-1" relative="1" as="geometry"/>
                </mxCell>
                <mxCell id="15" value="0..1" style="edgeLabel;resizable=0;html=1;align=right;verticalAlign=bottom;" parent="13" connectable="0" vertex="1">
                    <mxGeometry x="1" relative="1" as="geometry"/>
                </mxCell>
                <mxCell id="16" value="ターン" style="html=1;" parent="1" vertex="1">
                    <mxGeometry x="310" y="300" width="160" height="60" as="geometry"/>
                </mxCell>
                <mxCell id="17" value="" style="endArrow=none;html=1;edgeStyle=orthogonalEdgeStyle;exitX=1.015;exitY=0.408;exitDx=0;exitDy=0;exitPerimeter=0;entryX=-0.001;entryY=0.394;entryDx=0;entryDy=0;entryPerimeter=0;" parent="1" source="2" target="16" edge="1">
                    <mxGeometry x="0.4934" y="4" relative="1" as="geometry">
                        <mxPoint x="360.0000000000002" y="241.01999999999987" as="sourcePoint"/>
                        <mxPoint x="280" y="325" as="targetPoint"/>
                        <mxPoint as="offset"/>
                    </mxGeometry>
                </mxCell>
                <mxCell id="18" value="１" style="edgeLabel;resizable=0;html=1;align=left;verticalAlign=bottom;" parent="17" connectable="0" vertex="1">
                    <mxGeometry x="-1" relative="1" as="geometry"/>
                </mxCell>
                <mxCell id="19" value="＊" style="edgeLabel;resizable=0;html=1;align=right;verticalAlign=bottom;" parent="17" connectable="0" vertex="1">
                    <mxGeometry x="1" relative="1" as="geometry"/>
                </mxCell>
                <mxCell id="21" value="" style="endArrow=none;html=1;edgeStyle=orthogonalEdgeStyle;exitX=1.009;exitY=0.505;exitDx=0;exitDy=0;exitPerimeter=0;entryX=-0.011;entryY=0.022;entryDx=0;entryDy=0;entryPerimeter=0;" parent="1" source="16" target="3" edge="1">
                    <mxGeometry x="0.4934" y="4" relative="1" as="geometry">
                        <mxPoint x="242.39999999999998" y="334.48" as="sourcePoint"/>
                        <mxPoint x="500" y="420" as="targetPoint"/>
                        <mxPoint as="offset"/>
                        <Array as="points">
                            <mxPoint x="500" y="330"/>
                            <mxPoint x="500" y="411"/>
                        </Array>
                    </mxGeometry>
                </mxCell>
                <mxCell id="22" value="１" style="edgeLabel;resizable=0;html=1;align=left;verticalAlign=bottom;" parent="21" connectable="0" vertex="1">
                    <mxGeometry x="-1" relative="1" as="geometry"/>
                </mxCell>
                <mxCell id="23" value="1" style="edgeLabel;resizable=0;html=1;align=right;verticalAlign=bottom;" parent="21" connectable="0" vertex="1">
                    <mxGeometry x="1" relative="1" as="geometry"/>
                </mxCell>
                <mxCell id="24" value="マス目" style="html=1;" parent="1" vertex="1">
                    <mxGeometry x="530" y="530" width="160" height="60" as="geometry"/>
                </mxCell>
                <mxCell id="25" value="" style="endArrow=none;html=1;edgeStyle=orthogonalEdgeStyle;entryX=0.5;entryY=0;entryDx=0;entryDy=0;entryPerimeter=0;" parent="1" source="3" target="24" edge="1">
                    <mxGeometry x="0.4934" y="4" relative="1" as="geometry">
                        <mxPoint x="641.6" y="478.97999999999996" as="sourcePoint"/>
                        <mxPoint x="670" y="520" as="targetPoint"/>
                        <mxPoint as="offset"/>
                        <Array as="points"/>
                    </mxGeometry>
                </mxCell>
                <mxCell id="26" value="１" style="edgeLabel;resizable=0;html=1;align=left;verticalAlign=bottom;" parent="25" connectable="0" vertex="1">
                    <mxGeometry x="-1" relative="1" as="geometry"/>
                </mxCell>
                <mxCell id="27" value="*" style="edgeLabel;resizable=0;html=1;align=right;verticalAlign=bottom;" parent="25" connectable="0" vertex="1">
                    <mxGeometry x="1" relative="1" as="geometry"/>
                </mxCell>
                <mxCell id="28" value="" style="endArrow=none;html=1;edgeStyle=orthogonalEdgeStyle;" parent="1" edge="1">
                    <mxGeometry x="0.4934" y="4" relative="1" as="geometry">
                        <mxPoint x="610" y="768" as="sourcePoint"/>
                        <mxPoint x="610" y="600" as="targetPoint"/>
                        <mxPoint as="offset"/>
                        <Array as="points">
                            <mxPoint x="610" y="768"/>
                        </Array>
                    </mxGeometry>
                </mxCell>
                <mxCell id="29" value="１" style="edgeLabel;resizable=0;html=1;align=left;verticalAlign=bottom;" parent="28" connectable="0" vertex="1">
                    <mxGeometry x="-1" relative="1" as="geometry"/>
                </mxCell>
                <mxCell id="30" value="1" style="edgeLabel;resizable=0;html=1;align=right;verticalAlign=bottom;" parent="28" connectable="0" vertex="1">
                    <mxGeometry x="1" relative="1" as="geometry"/>
                </mxCell>
                <mxCell id="31" value="ターン" style="html=1;" vertex="1" parent="1">
                    <mxGeometry x="310" y="298.68" width="160" height="60" as="geometry"/>
                </mxCell>
                <mxCell id="32" value="" style="endArrow=none;html=1;edgeStyle=orthogonalEdgeStyle;exitX=1.009;exitY=0.505;exitDx=0;exitDy=0;exitPerimeter=0;entryX=-0.011;entryY=0.022;entryDx=0;entryDy=0;entryPerimeter=0;" edge="1" source="31" parent="1">
                    <mxGeometry x="0.4934" y="4" relative="1" as="geometry">
                        <mxPoint x="242.39999999999998" y="333.16" as="sourcePoint"/>
                        <mxPoint x="528.24" y="409.99999999999994" as="targetPoint"/>
                        <mxPoint as="offset"/>
                        <Array as="points">
                            <mxPoint x="500" y="328.68"/>
                            <mxPoint x="500" y="409.68"/>
                        </Array>
                    </mxGeometry>
                </mxCell>
                <mxCell id="33" value="１" style="edgeLabel;resizable=0;html=1;align=left;verticalAlign=bottom;" connectable="0" vertex="1" parent="32">
                    <mxGeometry x="-1" relative="1" as="geometry"/>
                </mxCell>
                <mxCell id="34" value="1" style="edgeLabel;resizable=0;html=1;align=right;verticalAlign=bottom;" connectable="0" vertex="1" parent="32">
                    <mxGeometry x="1" relative="1" as="geometry"/>
                </mxCell>
                <mxCell id="40" value="手" style="html=1;" vertex="1" parent="1">
                    <mxGeometry x="510" y="181.02" width="160" height="60" as="geometry"/>
                </mxCell>
                <mxCell id="41" value="" style="endArrow=none;html=1;edgeStyle=orthogonalEdgeStyle;exitX=0.488;exitY=0.005;exitDx=0;exitDy=0;exitPerimeter=0;" edge="1" parent="1" source="31">
                    <mxGeometry x="0.4934" y="4" relative="1" as="geometry">
                        <mxPoint x="451.44000000000005" y="100.00000000000003" as="sourcePoint"/>
                        <mxPoint x="508" y="210" as="targetPoint"/>
                        <mxPoint as="offset"/>
                        <Array as="points">
                            <mxPoint x="388" y="200"/>
                            <mxPoint x="508" y="200"/>
                        </Array>
                    </mxGeometry>
                </mxCell>
                <mxCell id="42" value="１" style="edgeLabel;resizable=0;html=1;align=left;verticalAlign=bottom;" connectable="0" vertex="1" parent="41">
                    <mxGeometry x="-1" relative="1" as="geometry"/>
                </mxCell>
                <mxCell id="43" value="1" style="edgeLabel;resizable=0;html=1;align=right;verticalAlign=bottom;" connectable="0" vertex="1" parent="41">
                    <mxGeometry x="1" relative="1" as="geometry"/>
                </mxCell>
            </root>
        </mxGraphModel>
    </diagram>
</mxfile>